<svg width="20" height="20" viewBox="0 0 20 20" fill="none" xmlns="http://www.w3.org/2000/svg">
<path d="M9.91663 1.66667C6.66663 1.66667 4.0833 4.5 4.16663 7.75C4.24997 9.91667 5.49997 11.75 7.24997 12.6667C8.41663 13.25 9.16663 14.4167 9.16663 15.6667V15.8333C9.16663 17.25 10.25 18.3333 11.6666 18.3333C15 18.3333 15.8333 14.1667 15.8333 7.5C15.8333 7.5 15.8333 1.66667 9.91663 1.66667ZM11.6666 16.6667C11.1666 16.6667 10.8333 16.3333 10.8333 15.8333V15.6667C10.8333 13.8333 9.74997 12.0833 8.0833 11.1667C6.74997 10.5 5.91663 9.16667 5.8333 7.66667C5.8333 6.58333 6.24997 5.41667 6.99997 4.58333C7.74997 3.75 8.8333 3.33333 9.8333 3.33333C13.9166 3.33333 14.1666 6.83333 14.1666 7.5C14.1666 15.75 12.75 16.6667 11.6666 16.6667ZM13.1666 6.33333L6.91663 8.58333C6.74997 8.33333 6.66663 8 6.66663 7.58333C6.66663 7 6.8333 6.5 7.0833 5.91667L11.4166 4.33333C12.4166 4.83333 12.9166 5.58333 13.1666 6.33333ZM10.75 12.5833L13.0833 11.75C13 13 12.75 13.9167 12.5833 14.5L11.5 14.9167C11.5 14.0833 11.25 13.3333 10.75 12.5833ZM13.3333 7.66667C13.3333 8.66667 13.3333 9.58333 13.25 10.3333L9.91663 11.5833C9.49997 11.1667 8.99997 10.75 8.41663 10.5C8.0833 10.3333 7.74997 10.0833 7.49997 9.83333L13.3333 7.66667Z" fill="#A23045"/>
</svg>
